<svg width="1200" height="1200" xmlns="http://www.w3.org/2000/svg"><defs><linearGradient id="a" gradientTransform="rotate(90)"><stop offset="5%" stop-color="#c06c84"/><stop offset="95%" stop-color="#cf90a2"/></linearGradient><linearGradient id="b" gradientTransform="rotate(90)"><stop offset="5%" stop-color="#355c7d"/><stop offset="95%" stop-color="#67849d"/></linearGradient></defs><path fill="#f8b195" d="M0 0h1200v1200H0z"/><path d="M0 400c58.797 14.382 117.595 28.764 189 8s155.418-76.674 222-62c66.582 14.674 115.733 99.933 179 96 63.267-3.933 140.649-97.059 213-112 72.351-14.941 139.672 48.303 205 73 65.328 24.697 128.664 10.849 232-3l-40 800H0Z" fill="url(#a)"/><path d="M0 800c62.962 3.705 125.923 7.41 189 12s126.27 10.064 194 8 140-11.667 214-25 149.73-30.397 215-41c65.27-10.603 120.077-14.744 183-6s133.962 30.372 245 52l-40 400H0Z" fill="url(#b)"/></svg>